<svg xmlns="http://www.w3.org/2000/svg" width="1000" height="280" viewBox="0 0 1000 280" role="img" aria-label="Anran — Inference systems, runtimes and developer tools">
<rect width="1000" height="280" rx="16" fill="#edf4f1"/>
<path d="M44 36h26" stroke="#237c60" stroke-width="3"/>
<text x="82" y="41" fill="#516d65" font-family="monospace" font-size="12" letter-spacing="2">ANRANS / ENGINEERING</text>
<text x="41" y="130" fill="#16332e" font-family="Georgia,serif" font-size="76" letter-spacing="-3">Anran.</text>
<text x="44" y="174" fill="#16332e" font-family="Arial,sans-serif" font-size="22">Inference systems.</text>
<text x="44" y="203" fill="#16332e" font-family="Arial,sans-serif" font-size="22">Runtimes &amp; developer tools.</text>
<text x="44" y="254" fill="#516d65" font-family="monospace" font-size="12" letter-spacing="1">RUST / CUDA / WEBASSEMBLY</text>
<path d="M610 45v192" stroke="#cadbd3"/>
<text x="658" y="54" fill="#516d65" font-family="monospace" font-size="11" letter-spacing="2">FROM MODEL TO MACHINE</text>
<rect x="658" y="78" width="184" height="36" rx="4" fill="#e0ece5" stroke="#cadbd3"/>
<rect x="658" y="78" width="3" height="36" fill="#237c60"/>
<text x="676" y="101" fill="#16332e" font-family="monospace" font-size="12" letter-spacing="2">MODEL</text>
<circle cx="825" cy="96" r="3" fill="#237c60"/>
<rect x="658" y="128" width="230" height="36" rx="4" fill="#e0ece5" stroke="#cadbd3"/>
<rect x="658" y="128" width="3" height="36" fill="#237c60"/>
<text x="676" y="151" fill="#16332e" font-family="monospace" font-size="12" letter-spacing="2">RUNTIME</text>
<circle cx="871" cy="146" r="3" fill="#237c60"/>
<rect x="658" y="178" width="276" height="36" rx="4" fill="#e0ece5" stroke="#cadbd3"/>
<rect x="658" y="178" width="3" height="36" fill="#237c60"/>
<text x="676" y="201" fill="#16332e" font-family="monospace" font-size="12" letter-spacing="2">HARDWARE</text>
<circle cx="917" cy="196" r="3" fill="#237c60"/>
<path d="M688 114v14m0 36v14" stroke="#237c60"/>
</svg>