<svg width="1200" height="320" viewBox="0 0 1200 320" fill="none" xmlns="http://www.w3.org/2000/svg" role="img" aria-labelledby="title desc">
  <title id="title">Anran learning AI from first principles</title>
  <desc id="desc">Transformer inference, machine learning systems, and learning in public.</desc>
  <defs>
    <linearGradient id="edge" x1="48" y1="24" x2="1152" y2="296" gradientUnits="userSpaceOnUse">
      <stop stop-color="#D0D7DE" />
      <stop offset="0.5" stop-color="#E6E9ED" />
      <stop offset="1" stop-color="#D0D7DE" />
    </linearGradient>
    <linearGradient id="accent" x1="838" y1="116" x2="930" y2="204" gradientUnits="userSpaceOnUse">
      <stop stop-color="#0969DA" />
      <stop offset="0.52" stop-color="#8250DF" />
      <stop offset="1" stop-color="#1A7F37" />
    </linearGradient>
    <pattern id="grid" width="32" height="32" patternUnits="userSpaceOnUse">
      <path d="M32 0H0V32" stroke="#D8DEE4" stroke-width="1" />
    </pattern>
    <filter id="glow" x="-30%" y="-30%" width="160%" height="160%">
      <feGaussianBlur stdDeviation="14" />
    </filter>
  </defs>

  <rect x="1" y="1" width="1198" height="318" rx="24" fill="#F6F8FA" stroke="url(#edge)" stroke-width="2" />
  <rect x="24" y="24" width="1152" height="272" rx="16" fill="url(#grid)" opacity="0.72" />
  <g opacity="0.1" filter="url(#glow)">
    <circle cx="1012" cy="74" r="78" fill="#0969DA" />
    <circle cx="1110" cy="232" r="72" fill="#8250DF" />
  </g>

  <g font-family="ui-monospace, SFMono-Regular, Menlo, Monaco, Consolas, monospace">
    <text x="68" y="76" fill="#57606A" font-size="15" font-weight="600" letter-spacing="3">ANRAN / LEARNING IN PUBLIC</text>
    <text x="64" y="146" fill="#24292F" font-size="50" font-weight="750" letter-spacing="-1.8">Learning AI.</text>
    <text x="64" y="202" fill="#24292F" font-size="50" font-weight="750" letter-spacing="-1.8">From first principles.</text>
    <text x="68" y="252" fill="#57606A" font-size="16" font-weight="500">TRANSFORMERS  ·  INFERENCE  ·  ML SYSTEMS</text>
  </g>

  <g stroke-linecap="round" stroke-linejoin="round">
    <path d="M766 160H838" stroke="#0969DA" stroke-width="2" stroke-dasharray="5 7" />
    <path d="M929 115L970 88" stroke="#8250DF" stroke-width="2" stroke-dasharray="5 7" />
    <path d="M929 205L970 232" stroke="#1A7F37" stroke-width="2" stroke-dasharray="5 7" />
    <circle cx="762" cy="160" r="4" fill="#0969DA" />
    <circle cx="974" cy="86" r="4" fill="#8250DF" />
    <circle cx="974" cy="234" r="4" fill="#1A7F37" />
  </g>

  <g font-family="ui-monospace, SFMono-Regular, Menlo, Monaco, Consolas, monospace">
    <rect x="838" y="116" width="92" height="88" rx="18" fill="#FFFFFF" stroke="url(#accent)" stroke-width="2" />
    <g stroke="#57606A" stroke-width="1.6">
      <path d="M858 143L883 151L909 160" />
      <path d="M858 160L883 151L909 160" />
      <path d="M858 160L883 169L909 160" />
      <path d="M858 177L883 169L909 160" />
    </g>
    <circle cx="858" cy="143" r="5" fill="#0969DA" />
    <circle cx="858" cy="160" r="5" fill="#0969DA" />
    <circle cx="858" cy="177" r="5" fill="#0969DA" />
    <circle cx="883" cy="151" r="6" fill="#8250DF" />
    <circle cx="883" cy="169" r="6" fill="#8250DF" />
    <circle cx="909" cy="160" r="7" fill="#1A7F37" />

    <rect x="974" y="48" width="148" height="76" rx="14" fill="#FFFFFF" stroke="#D0D7DE" />
    <circle cx="998" cy="72" r="6" fill="#8250DF" />
    <text x="1014" y="78" fill="#24292F" font-size="15" font-weight="700">MATH</text>
    <text x="996" y="103" fill="#57606A" font-size="12">derive</text>

    <rect x="974" y="122" width="148" height="76" rx="14" fill="#FFFFFF" stroke="#D0D7DE" />
    <circle cx="998" cy="146" r="6" fill="#0969DA" />
    <text x="1014" y="152" fill="#24292F" font-size="15" font-weight="700">MODEL</text>
    <text x="996" y="177" fill="#57606A" font-size="12">implement</text>

    <rect x="974" y="196" width="148" height="76" rx="14" fill="#FFFFFF" stroke="#D0D7DE" />
    <circle cx="998" cy="220" r="6" fill="#1A7F37" />
    <text x="1014" y="226" fill="#24292F" font-size="15" font-weight="700">SYSTEMS</text>
    <text x="996" y="251" fill="#57606A" font-size="12">measure</text>
  </g>
</svg>
